<?xml version="1.0" encoding="UTF-8" standalone="no"?>
<svg
   xmlns:dc="http://purl.org/dc/elements/1.1/"
   xmlns:cc="http://creativecommons.org/ns#"
   xmlns:rdf="http://www.w3.org/1999/02/22-rdf-syntax-ns#"
   xmlns:svg="http://www.w3.org/2000/svg"
   xmlns="http://www.w3.org/2000/svg"
   viewBox="0 0 331.25221 70.023401"
   id="svg15"
   height="18.527025mm"
   width="87.643814mm"
   version="1.1">
  <metadata
     id="metadata21">
    <rdf:RDF>
      <cc:Work
         rdf:about="">
        <dc:format>image/svg+xml</dc:format>
        <dc:type
           rdf:resource="http://purl.org/dc/dcmitype/StillImage" />
        <dc:title></dc:title>
      </cc:Work>
    </rdf:RDF>
  </metadata>
  <defs
     id="defs19" />
  <g
     transform="translate(-255.3188,-262.6261)"
     id="Layer1000">
    <path
       id="path4"
       style="fill:#ff6e00;fill-rule:evenodd"
       d="m 421.0107,267.3142 v 13.2195 c -2.0273,-0.1549 -4.0126,-0.2394 -5.8709,-0.2394 -14.8242,0 -23.6094,5.4205 -23.6094,21.526 0,16.0493 8.7852,21.5397 23.6094,21.5397 12.3328,0 17.6121,-3.8011 17.6121,-13.2615 v -42.7701 c 0,-2.4919 -1.3937,-3.8856 -3.8856,-3.8856 h -3.9701 c -2.4918,0 -3.8855,1.3937 -3.8855,3.8856 z m -118.2336,12.9664 c -7.4756,0 -11.9103,2.1539 -14.3601,5.9549 -2.4919,-3.801 -6.8841,-5.9549 -14.4021,-5.9549 -11.3754,0 -18.6961,5.1103 -18.6961,19.2168 v 19.2027 c 0,2.4919 1.3937,3.8997 3.8856,3.8997 h 3.7732 c 2.4918,0 3.8855,-1.4078 3.8855,-3.8997 v -19.7942 c 0,-6.0394 2.5764,-8.7423 8.1654,-8.7423 5.5753,0 7.6446,2.7029 7.6446,8.7423 v 19.7942 c 0,2.4919 1.3937,3.8997 3.8856,3.8997 h 3.7166 c 2.4918,0 3.8855,-1.4078 3.8855,-3.8997 v -19.7942 c 0,-6.0394 2.0698,-8.7423 7.6446,-8.7423 5.589,0 8.1654,2.7029 8.1654,8.7423 v 29.8439 c 0,2.4919 1.3937,3.8997 3.8856,3.8997 h 3.7732 c 2.4918,0 3.8855,-1.4078 3.8855,-3.8997 v -29.2524 c 0,-14.1065 -7.3207,-19.2168 -18.738,-19.2168 z m 30.8374,-4.6461 c 4.3926,0 6.5465,-2.4074 6.5465,-6.462 0,-4.0546 -2.1539,-6.5464 -6.5465,-6.5464 -4.3643,0 -6.5606,2.4918 -6.5606,6.5464 0,4.0546 2.1963,6.462 6.5606,6.462 z m -2.126,46.9653 h 4.1958 c 2.4919,0 3.8856,-1.3937 3.8856,-3.8997 v -33.7596 c 0,-2.506 -1.3937,-3.8998 -3.8856,-3.8998 h -4.1958 c -2.4918,0 -3.8855,1.3938 -3.8855,3.8998 v 33.7596 c 0,2.506 1.3937,3.8997 3.8855,3.8997 z m 34.9771,-42.3192 c -13.1354,0 -20.7796,4.3922 -20.7796,19.5686 v 18.8509 c 0,2.4919 1.3937,3.8997 3.8856,3.8997 h 3.9701 c 2.4918,0 3.8855,-1.4078 3.8855,-3.8997 v -19.0336 c 0,-7.4336 2.7029,-9.5029 9.0384,-9.5029 6.3349,0 9.0383,2.0693 9.0383,9.5029 v 19.0336 c 0,2.4919 1.3937,3.8997 3.8855,3.8997 h 3.9701 c 2.4919,0 3.8856,-1.4078 3.8856,-3.8997 v -18.8509 c 0,-15.1764 -7.6446,-19.5686 -20.7795,-19.5686 z m 47.8716,33.1964 c -7.7711,0 -11.0651,-2.9139 -11.0651,-11.6567 0,-8.8835 3.294,-11.6709 11.1496,-11.6709 1.9008,0 4.0971,0.169 6.589,0.5066 v 17.6683 c 0,3.421 -0.6761,5.1527 -6.6735,5.1527 z" />
    <path
       id="path6"
       style="fill:#00326e;fill-rule:evenodd"
       d="m 554.3736,321.6282 c 15.0923,3.9701 32.1974,1.5627 32.1974,-11.4877 0,-6.4199 -4.0126,-10.474 -12.2903,-12.5858 l -9.5171,-2.4499 c -1.8299,-0.4646 -2.9281,-1.4357 -2.9281,-2.8294 0,-3.8861 9.7139,-3.4635 17.9076,-1.6897 2.745,0.5915 4.3502,-0.5911 4.3502,-3.3365 v -1.0137 c 0,-2.2808 -1.0562,-3.801 -3.3365,-4.3501 -14.895,-3.6746 -30.2263,-1.1402 -30.2263,10.7276 0,5.7018 3.5476,9.8409 11.8258,11.9527 l 8.8834,2.2803 c 2.8158,0.7606 4.125,1.7743 4.125,3.5901 0,4.6881 -10.094,4.097 -19.935,2.1963 -2.7454,-0.5066 -4.3501,0.7601 -4.3501,3.4635 v 1.1822 c 0,2.2808 1.0557,3.759 3.294,4.3501 z" />
    <path
       id="path8"
       style="fill:#00326e;fill-rule:evenodd"
       d="m 523.1858,280.2943 c -1.8583,0 -3.8431,0.0845 -5.8704,0.2536 v -13.2195 c 0,-2.4919 -1.3937,-3.8856 -3.8856,-3.8856 h -3.9701 c -2.4918,0 -3.8855,1.3937 -3.8855,3.8856 v 42.7701 c 0,9.4604 5.2793,13.2615 17.6116,13.2615 14.8246,0 23.6094,-5.4904 23.6094,-21.5397 0,-16.1055 -8.7848,-21.526 -23.6094,-21.526 z m 0.8026,33.1827 c -5.9974,0 -6.673,-1.7317 -6.673,-5.1527 V 290.656 c 2.4919,-0.3376 4.6882,-0.5066 6.5885,-0.5066 7.8556,0 11.1501,2.7874 11.1501,11.6709 0,8.7428 -3.2945,11.6567 -11.0656,11.6567 z" />
    <path
       id="path10"
       style="fill:#00326e;fill-rule:evenodd"
       d="m 480.1083,280.2806 c -3.7029,0 -8.1795,0.5066 -12.7832,1.4782 -2.7596,0.5491 -4.0688,2.0694 -4.0688,4.3922 v 1.5627 c 0,2.7029 1.6052,3.9281 4.2798,3.421 3.9281,-0.8026 7.8557,-1.3092 10.8825,-1.3092 6.1664,0 9.8267,2.0273 9.8267,6.6872 v 0.6756 h -10.9249 c -10.2488,0 -16.598,2.7454 -16.598,12.7128 0,9.9392 6.3071,12.6846 16.598,12.6846 h 9.5874 c 9.0666,0 13.0788,-3.3365 13.0788,-12.1355 v -13.9375 c 0,-11.3753 -8.4468,-16.2321 -19.8783,-16.2321 z m 3.9276,33.8862 h -6.1664 c -5.0541,0 -6.1098,-1.1822 -6.1098,-4.2657 0,-3.1112 1.0557,-4.2939 6.1523,-4.2939 h 10.3333 v 4.2519 c 0,2.8295 -0.5911,4.3077 -4.2094,4.3077 z" />
    <path
       id="path12"
       style="fill:#00326e;fill-rule:evenodd"
       d="m 442.522,267.3567 v 51.3576 c 0,2.4918 1.3937,3.8855 3.8856,3.8855 h 4.1957 c 2.4919,0 3.8856,-1.3937 3.8856,-3.8855 v -51.3576 c 0,-2.4918 -1.3937,-3.8855 -3.8856,-3.8855 h -4.1957 c -2.4919,0 -3.8856,1.3937 -3.8856,3.8855 z" />
  </g>
</svg>
